<svg width="68" height="27" viewBox="0 0 68 27" fill="none" xmlns="http://www.w3.org/2000/svg">
<path d="M0.254332 20.7612V0.786172H2.36598V18.9349H13.552V20.7612H0.254332ZM22.5138 20.9039C21.068 20.9039 19.7649 20.5805 18.6044 19.9337C17.463 19.2679 16.5593 18.3642 15.8935 17.2228C15.2277 16.0623 14.8948 14.7402 14.8948 13.2563C14.8948 11.7534 15.2277 10.4313 15.8935 9.28984C16.5593 8.14841 17.463 7.25429 18.6044 6.60748C19.7458 5.96066 21.049 5.63726 22.5138 5.63726C23.9977 5.63726 25.3103 5.96066 26.4518 6.60748C27.6122 7.25429 28.5158 8.14841 29.1627 9.28984C29.8285 10.4313 30.1614 11.7534 30.1614 13.2563C30.1614 14.7402 29.8285 16.0623 29.1627 17.2228C28.5158 18.3642 27.6122 19.2679 26.4518 19.9337C25.2913 20.5805 23.9787 20.9039 22.5138 20.9039ZM22.5138 19.1062C23.5982 19.1062 24.5589 18.8684 25.3959 18.3928C26.233 17.8981 26.8893 17.2133 27.3649 16.3382C27.8595 15.4441 28.1068 14.4168 28.1068 13.2563C28.1068 12.0768 27.8595 11.0495 27.3649 10.1744C26.8893 9.29935 26.233 8.624 25.3959 8.14841C24.5589 7.65379 23.6077 7.40648 22.5423 7.40648C21.477 7.40648 20.5258 7.65379 19.6888 8.14841C18.8517 8.624 18.1859 9.29935 17.6913 10.1744C17.1966 11.0495 16.9493 12.0768 16.9493 13.2563C16.9493 14.4168 17.1966 15.4441 17.6913 16.3382C18.1859 17.2133 18.8517 17.8981 19.6888 18.3928C20.5258 18.8684 21.4675 19.1062 22.5138 19.1062ZM40.6898 26.4399C39.3201 26.4399 38.0074 26.2401 36.7518 25.8406C35.4963 25.4411 34.4785 24.8704 33.6985 24.1285L34.7258 22.5875C35.4297 23.2153 36.2953 23.7099 37.3226 24.0714C38.3689 24.4519 39.4723 24.6421 40.6327 24.6421C42.5351 24.6421 43.9333 24.195 44.8275 23.3009C45.7216 22.4258 46.1687 21.0561 46.1687 19.1918V15.4536L46.454 12.8854L46.2543 10.3171V5.77994H48.1947V18.9349C48.1947 21.5222 47.5574 23.4151 46.2828 24.6136C45.0272 25.8311 43.1629 26.4399 40.6898 26.4399ZM40.3188 20.1905C38.892 20.1905 37.6079 19.8861 36.4665 19.2774C35.325 18.6496 34.4214 17.784 33.7556 16.6806C33.1088 15.5772 32.7854 14.3121 32.7854 12.8854C32.7854 11.4586 33.1088 10.203 33.7556 9.11863C34.4214 8.01524 35.325 7.15917 36.4665 6.5504C37.6079 5.94164 38.892 5.63726 40.3188 5.63726C41.6505 5.63726 42.849 5.9131 43.9143 6.4648C44.9797 7.01649 45.8262 7.83451 46.454 8.91887C47.0818 10.0032 47.3957 11.3254 47.3957 12.8854C47.3957 14.4453 47.0818 15.7675 46.454 16.8518C45.8262 17.9362 44.9797 18.7637 43.9143 19.3344C42.849 19.9052 41.6505 20.1905 40.3188 20.1905ZM40.5186 18.3928C41.6219 18.3928 42.6017 18.1645 43.4578 17.7079C44.3138 17.2323 44.9892 16.5855 45.4838 15.7675C45.9784 14.9304 46.2257 13.9697 46.2257 12.8854C46.2257 11.801 45.9784 10.8498 45.4838 10.0318C44.9892 9.21374 44.3138 8.57645 43.4578 8.11987C42.6017 7.64428 41.6219 7.40648 40.5186 7.40648C39.4342 7.40648 38.4545 7.64428 37.5794 8.11987C36.7233 8.57645 36.048 9.21374 35.5533 10.0318C35.0777 10.8498 34.8399 11.801 34.8399 12.8854C34.8399 13.9697 35.0777 14.9304 35.5533 15.7675C36.048 16.5855 36.7233 17.2323 37.5794 17.7079C38.4545 18.1645 39.4342 18.3928 40.5186 18.3928ZM59.9392 20.9039C58.4934 20.9039 57.1902 20.5805 56.0298 19.9337C54.8883 19.2679 53.9847 18.3642 53.3189 17.2228C52.653 16.0623 52.3201 14.7402 52.3201 13.2563C52.3201 11.7534 52.653 10.4313 53.3189 9.28984C53.9847 8.14841 54.8883 7.25429 56.0298 6.60748C57.1712 5.96066 58.4743 5.63726 59.9392 5.63726C61.423 5.63726 62.7357 5.96066 63.8771 6.60748C65.0376 7.25429 65.9412 8.14841 66.588 9.28984C67.2539 10.4313 67.5868 11.7534 67.5868 13.2563C67.5868 14.7402 67.2539 16.0623 66.588 17.2228C65.9412 18.3642 65.0376 19.2679 63.8771 19.9337C62.7167 20.5805 61.404 20.9039 59.9392 20.9039ZM59.9392 19.1062C61.0235 19.1062 61.9842 18.8684 62.8213 18.3928C63.6583 17.8981 64.3147 17.2133 64.7903 16.3382C65.2849 15.4441 65.5322 14.4168 65.5322 13.2563C65.5322 12.0768 65.2849 11.0495 64.7903 10.1744C64.3147 9.29935 63.6583 8.624 62.8213 8.14841C61.9842 7.65379 61.033 7.40648 59.9677 7.40648C58.9024 7.40648 57.9512 7.65379 57.1141 8.14841C56.2771 8.624 55.6112 9.29935 55.1166 10.1744C54.622 11.0495 54.3747 12.0768 54.3747 13.2563C54.3747 14.4168 54.622 15.4441 55.1166 16.3382C55.6112 17.2133 56.2771 17.8981 57.1141 18.3928C57.9512 18.8684 58.8929 19.1062 59.9392 19.1062Z" fill="white"/>
</svg>
